<?xml version='1.0' encoding='utf-8'?>
<svg xmlns="http://www.w3.org/2000/svg" version="1.1" id="Layer_1" x="0px" y="0px" viewBox="0 0 2224.083 5000" enable-background="new 0 0 2224.083 5000"> <g> <path d="M1728.263,3706.901c19.753,97.214,25.628,183.017,17.231,247.234c142.273-251.254,135.278-962.317-271.292-1541.375 c-373.8-532.356-1212.56-1056.353-1052.258-1442.718c-28.73,443.867,735.816,813.914,1163.242,1442.716 c393.786,579.328,357.587,1134.463,251.493,1541.391c138.146-238.67,664.782-799.62,198.586-1880.49 c-19.37,115.244-82.628,336.846-189.298,441.865c55.719-308.282-21.644-599.095-88.17-719.315c0,0-630.664-514.132-698.748-624.766 c-58.449-95.099-64.468,219.156-63.298,330.561c0,0-150.438-182.593-72.345-404.544C935.655,1011.718,561.219,776.309,528.818,0 C183.541,234.29,47.895,949.493,68.082,1097.754c79.131,87.029,172.693,276.572,213.005,310.01 C193.157,1355.155,67.957,1242.256,0,1174.355c0,0,245.197,868.493,919.305,1374.053c241.438,89.674,443.612,92.957,511.556,90.969 c15.889-0.463,24.465-1.213,24.465-1.213c-69.192,43.496-185.817,81.616-323.864,85.802c-16.955,0.499-42.265,0.628-59.115-0.689 c275.296,152.394,469.352,446.167,577.125,721.018L1728.263,3706.901z"/> <path d="M1669.717,4128.82l-117.836,254.84l200.061,501.468l30.132,0.001v-478.037c-18.948-5.4-32.892-22.635-32.884-43.291 c-0.017-24.972,20.232-45.217,45.215-45.226c24.966-0.007,45.201,20.254,45.209,45.219c0.002,20.663-13.954,37.903-32.887,43.297 l0.007,478.027l30.14-0.01l200.035-501.448l-117.834-254.839C1678.118,4128.814,1914.587,4128.828,1669.717,4128.82z"/> <polygon points="1666.973,4088.18 1921.816,4088.174 1921.815,3996.848 1666.98,3996.842 "/> <path d="M1794.407,4909.544c-24.972,0.018-45.222,20.261-45.234,45.23c0.018,24.973,20.251,45.213,45.219,45.226 c24.973-0.019,45.223-20.262,45.226-45.219C1839.601,4929.809,1819.367,4909.567,1794.407,4909.544z"/> </g> </svg>